<svg width="24" height="22" viewBox="0 0 24 22" fill="none" xmlns="http://www.w3.org/2000/svg">
<g clip-path="url(#clip0_303_236)">
<path d="M16.16 10.18L16.41 13.54L16.505 14.795L15.285 15.105C14.53 15.295 13.495 15.56 12 15.56C10.505 15.56 9.47002 15.295 8.71502 15.105L7.49502 14.795L7.59002 13.54L7.84002 10.18L3.90002 8.81C4.13502 11.485 5.05502 16.92 5.33002 17.45C5.65002 18.06 7.34502 19.81 8.67002 20.48C8.67002 20.48 9.15002 19.97 9.44502 19.52C9.81502 19.96 11.74 21.505 12 21.505C12.26 21.505 14.185 19.96 14.555 19.52C14.85 19.97 15.33 20.48 15.33 20.48C16.655 19.81 18.35 18.06 18.67 17.45C18.945 16.92 19.865 11.485 20.1 8.81L16.16 10.18Z" fill="#1EBCA1"/>
<path d="M14.575 9.14L24 5.865C23.44 2.495 20.5 0.005 20.5 0.005V3.71L18.755 4.16L17.66 2.835L16.725 4.685L12 5.91L7.275 4.685L6.34 2.835L5.245 4.16L3.5 3.71V0C3.5 0 0.56 2.495 0 5.86L9.425 9.135L9.09 13.645C9.895 13.85 10.74 14.055 12.005 14.055C13.27 14.055 14.115 13.85 14.92 13.645L14.585 9.135L14.575 9.14Z" fill="#1EBCA1"/>
</g>
<defs>
<clipPath id="clip0_303_236">
<rect width="24" height="21.5" fill="white"/>
</clipPath>
</defs>
</svg>
