<svg width="24" height="24" viewBox="0 0 24 24" fill="none" xmlns="http://www.w3.org/2000/svg">
<path d="M23.6187 0.803269L23.0567 0.382803L21.9458 1.57194L21.0552 0.285516L20.5429 0.52075L21.2478 2.31906L20.9214 2.6685L18.3912 0L17.8178 0.284152L20.0678 5.12021L17.9595 5.86143H17.9093L16.7663 4.50222L15.6224 5.8626H8.99614L7.85226 4.50222L6.70605 5.86539H6.67067L4.55076 5.12012L6.80097 0.284152L6.22746 0L3.69717 2.66843L3.37076 2.31899L4.07578 0.520684L3.56347 0.285448L2.67289 1.57188L1.56206 0.382803L1 0.803269L2.72932 3.6892L1.83934 4.62775L2.15049 7.00317L4.21167 7.79042L4.20758 8.81749H2.25578V9.26076L3.01129 10.3385L4.20758 10.7716V17.7432L7.26526 22.2939L7.96603 24L9.06725 22.394L10.2087 24L11.208 22.394L12.3093 24L13.4106 22.394L14.4099 24L15.5513 22.394L16.6525 24L17.3533 22.2939L20.411 17.7432V10.7716L21.6072 10.3385L22.3627 9.26076V8.81749H20.411L20.4139 7.78777L22.468 7.00322L22.7792 4.62782L21.8892 3.68927L23.6187 0.803269ZM14.6894 19.5208H8.34252L9.13585 17.9058L9.92926 19.5208L10.7225 18.4384L11.5159 19.5208L12.3093 18.4383L13.1026 19.5208L13.8961 18.4384L14.6894 19.5208L15.4827 17.9058L16.2761 19.5208H14.6894ZM18.5749 12.1306L15.2747 13.2154L15.1325 16.2765L12.3058 16.9029L9.47913 16.2765L9.33693 13.2154L6.03665 12.1306V10.4965L10.3031 11.7054L10.2511 15.8325H14.3603L14.3084 11.7054L18.5748 10.4965L18.5749 12.1306Z" fill="#4B917D"/>
</svg>
