<svg width="280" height="36" viewBox="0 0 280 36" fill="none" xmlns="http://www.w3.org/2000/svg">
<path d="M51.6044 13.4196V32.9816H45.5864V13.4196H41.4062V7.72619H55.7485V13.4196H51.6044Z" fill="white"/>
<path d="M57.658 22.9086V7.72619H63.676V22.9086C63.676 25.7553 65.0093 27.726 67.9642 27.726C70.8111 27.726 72.1805 25.7188 72.1805 22.8721V7.72619H78.1985V22.8721C78.1985 28.967 74.739 33.4561 67.8922 33.4561C60.8651 33.4561 57.658 29.2224 57.658 22.9086Z" fill="white"/>
<path d="M94.4139 21.4487L100.108 32.9815H93.6571L88.7563 22.6165H87.1347V32.9815H81.1528V7.72619H89.7293C94.9545 7.72619 97.585 10.4635 97.585 15.2444C97.585 18.0546 96.4319 20.2079 94.4139 21.4487ZM87.1346 12.9816V17.6531H89.2247C90.5941 17.6531 91.3869 16.7042 91.3869 15.2808C91.3869 13.8939 90.5581 12.9816 89.2247 12.9816H87.1346Z" fill="white"/>
<path d="M108.252 16.8137L111.387 18.0545C114.63 19.4049 116.54 21.5947 116.54 25.3538C116.54 30.4633 112.972 33.456 107.963 33.456C100.828 33.456 99.5309 28.748 99.7471 25.0618H105.441C105.369 26.6676 105.981 28.2371 107.963 28.2371C109.333 28.2371 110.342 27.4706 110.342 26.0108C110.342 24.5875 109.333 23.894 107.711 23.2735C106.45 22.7626 105.189 22.2881 103.819 21.5948C101.297 20.2809 99.9633 17.7992 99.9633 14.7334C99.9633 10.3174 103.134 7.25171 107.999 7.25171C113.873 7.25171 115.999 10.6459 115.747 15.1349H110.198C110.234 13.5656 109.441 12.4706 108.035 12.4706C106.666 12.4706 105.981 13.3101 105.981 14.3685C105.981 15.4269 106.558 16.1568 108.252 16.8137Z" fill="white"/>
<path d="M130.774 7.25171C138.918 7.25171 143.999 12.9086 143.999 20.2809C143.999 27.6531 138.954 33.456 130.954 33.456C122.81 33.456 117.837 27.7991 117.837 20.3903C117.837 13.0546 123.098 7.25171 130.774 7.25171ZM130.918 27.7626C135.315 27.7626 137.693 24.4779 137.693 20.3538C137.693 16.2298 135.171 12.9451 130.882 12.9451C126.486 12.9451 124.144 16.2298 124.144 20.3538C124.144 24.5144 126.774 27.7626 130.918 27.7626Z" fill="white"/>
<path d="M33.9281 1.2049L33.085 0.574205L31.4187 2.35791L30.0828 0.428274L29.3144 0.781127L30.3718 3.47859L29.8822 4.00275L26.0869 0L25.2266 0.426227L28.6017 7.68028L25.4392 8.79216H25.3639L23.6495 6.75333L21.9337 8.7939H11.9942L10.2784 6.75333L8.55906 8.79809H8.50601L5.32613 7.68018L8.70145 0.426227L7.84119 0L4.04576 4.00265L3.55614 3.47849L4.61368 0.781025L3.84521 0.428172L2.50933 2.35781L0.843088 0.574205L0 1.2049L2.59397 5.53379L1.25901 6.94162L1.72573 10.5047L4.8175 11.6856L4.81137 13.2263H1.88366V13.8911L3.01694 15.5078L4.81137 16.1573V26.6148L9.39786 33.4408L10.4491 36L12.1009 33.591L13.8129 36L15.3119 33.591L16.9639 36L18.6158 33.591L20.1148 36L21.8269 33.591L23.4787 36L24.5299 33.4408L29.1164 26.6148V16.1573L30.9108 15.5078L32.0441 13.8911V13.2263H29.1164L29.1209 11.6816L32.202 10.5048L32.6687 6.94173L31.3338 5.5339L33.9278 1.205L33.9281 1.2049ZM20.5341 29.2813H11.0138L12.2038 26.8587L13.3938 29.2813L14.5838 27.6576L15.7739 29.2812L16.964 27.6575L18.154 29.2812L19.344 27.6576L20.5341 29.2813L21.724 26.8587L22.914 29.2813H20.5339H20.5341ZM26.3623 18.1959L21.412 19.823L21.1986 24.4147L16.9587 25.3542L12.7187 24.4147L12.5054 19.823L7.55498 18.1959V15.7447L13.9547 17.5581L13.8767 23.7487H20.0405L19.9625 17.5581L26.3622 15.7447V18.1959H26.3623Z" fill="#4FF8D2"/>
<path d="M157.48 30V17.7818H158.888V22.292H159.007C159.11 22.133 159.253 21.9301 159.436 21.6835C159.623 21.433 159.89 21.2102 160.236 21.0153C160.586 20.8165 161.059 20.717 161.656 20.717C162.427 20.717 163.107 20.9099 163.696 21.2957C164.285 21.6815 164.744 22.2284 165.074 22.9364C165.404 23.6443 165.569 24.4795 165.569 25.442C165.569 26.4125 165.404 27.2537 165.074 27.9656C164.744 28.6736 164.287 29.2224 163.702 29.6122C163.117 29.998 162.443 30.1909 161.68 30.1909C161.091 30.1909 160.62 30.0935 160.266 29.8986C159.912 29.6997 159.639 29.475 159.448 29.2244C159.257 28.9699 159.11 28.7591 159.007 28.592H158.84V30H157.48ZM158.864 25.4182C158.864 26.1102 158.965 26.7207 159.168 27.2497C159.371 27.7747 159.667 28.1864 160.057 28.4847C160.447 28.779 160.924 28.9261 161.489 28.9261C162.077 28.9261 162.568 28.771 162.962 28.4608C163.36 28.1466 163.658 27.725 163.857 27.196C164.06 26.6631 164.161 26.0705 164.161 25.4182C164.161 24.7739 164.062 24.1932 163.863 23.6761C163.668 23.1551 163.372 22.7435 162.974 22.4412C162.58 22.1349 162.085 21.9818 161.489 21.9818C160.916 21.9818 160.435 22.127 160.045 22.4173C159.655 22.7037 159.361 23.1054 159.162 23.6224C158.963 24.1355 158.864 24.7341 158.864 25.4182ZM167.966 33.4364C167.727 33.4364 167.514 33.4165 167.327 33.3767C167.14 33.3409 167.011 33.3051 166.94 33.2693L167.298 32.0284C167.64 32.1159 167.942 32.1477 168.204 32.1239C168.467 32.1 168.7 31.9827 168.902 31.7719C169.109 31.5651 169.298 31.229 169.469 30.7636L169.732 30.0477L166.343 20.8364H167.87L170.4 28.1386H170.495L173.025 20.8364H174.552L170.662 31.3364C170.487 31.8097 170.271 32.2014 170.012 32.5116C169.753 32.8259 169.453 33.0585 169.111 33.2097C168.773 33.3608 168.391 33.4364 167.966 33.4364ZM233.998 20.8364C233.926 20.2318 233.636 19.7625 233.127 19.4284C232.617 19.0943 231.993 18.9273 231.253 18.9273C230.712 18.9273 230.239 19.0148 229.833 19.1898C229.432 19.3648 229.117 19.6054 228.891 19.9116C228.668 20.2179 228.557 20.5659 228.557 20.9557C228.557 21.2818 228.634 21.5622 228.789 21.7969C228.948 22.0276 229.151 22.2205 229.398 22.3756C229.644 22.5267 229.903 22.652 230.173 22.7514C230.444 22.8469 230.692 22.9244 230.919 22.9841L232.16 23.3182C232.478 23.4017 232.832 23.517 233.222 23.6642C233.616 23.8114 233.992 24.0122 234.35 24.2668C234.711 24.5173 235.01 24.8395 235.244 25.2332C235.479 25.627 235.596 26.1102 235.596 26.683C235.596 27.3432 235.423 27.9398 235.077 28.4727C234.735 29.0057 234.234 29.4293 233.574 29.7435C232.918 30.0577 232.12 30.2148 231.182 30.2148C230.307 30.2148 229.549 30.0736 228.909 29.7912C228.272 29.5088 227.771 29.1151 227.405 28.6099C227.043 28.1048 226.838 27.5182 226.791 26.85H228.318C228.358 27.3114 228.513 27.6932 228.783 27.9955C229.058 28.2937 229.404 28.5165 229.821 28.6636C230.243 28.8068 230.696 28.8784 231.182 28.8784C231.746 28.8784 232.253 28.7869 232.703 28.604C233.152 28.417 233.508 28.1585 233.771 27.8284C234.033 27.4943 234.165 27.1045 234.165 26.6591C234.165 26.2534 234.051 25.9233 233.825 25.6687C233.598 25.4142 233.3 25.2074 232.93 25.0483C232.56 24.8892 232.16 24.75 231.73 24.6307L230.227 24.2011C229.273 23.9267 228.517 23.5349 227.96 23.0259C227.403 22.5168 227.125 21.8506 227.125 21.0273C227.125 20.3432 227.31 19.7466 227.68 19.2375C228.053 18.7244 228.555 18.3267 229.183 18.0443C229.815 17.758 230.521 17.6148 231.301 17.6148C232.088 17.6148 232.788 17.756 233.401 18.0384C234.013 18.3168 234.499 18.6986 234.857 19.1838C235.219 19.669 235.409 20.2199 235.429 20.8364H233.998ZM241.487 20.8364V22.0295H236.738V20.8364H241.487ZM238.123 18.6409H239.53V27.375C239.53 27.7727 239.588 28.071 239.704 28.2699C239.823 28.4648 239.974 28.596 240.157 28.6636C240.344 28.7273 240.541 28.7591 240.748 28.7591C240.903 28.7591 241.03 28.7511 241.129 28.7352C241.229 28.7153 241.308 28.6994 241.368 28.6875L241.654 29.9523C241.559 29.9881 241.426 30.0239 241.255 30.0597C241.084 30.0994 240.867 30.1193 240.604 30.1193C240.207 30.1193 239.817 30.0338 239.435 29.8628C239.057 29.6918 238.743 29.4312 238.492 29.0812C238.246 28.7312 238.123 28.2898 238.123 27.7568V18.6409ZM243.269 30V20.8364H244.629V22.2205H244.725C244.892 21.767 245.194 21.3991 245.632 21.1168C246.069 20.8344 246.562 20.6932 247.111 20.6932C247.215 20.6932 247.344 20.6952 247.499 20.6991C247.654 20.7031 247.771 20.7091 247.851 20.717V22.1489C247.803 22.1369 247.694 22.119 247.523 22.0952C247.356 22.0673 247.179 22.0534 246.992 22.0534C246.546 22.0534 246.149 22.1469 245.799 22.3338C245.453 22.5168 245.178 22.7713 244.975 23.0974C244.777 23.4196 244.677 23.7875 244.677 24.2011V30H243.269ZM249.184 30V20.8364H250.592V30H249.184ZM249.9 19.3091C249.625 19.3091 249.389 19.2156 249.19 19.0287C248.995 18.8418 248.898 18.617 248.898 18.3545C248.898 18.092 248.995 17.8673 249.19 17.6804C249.389 17.4935 249.625 17.4 249.9 17.4C250.174 17.4 250.409 17.4935 250.604 17.6804C250.803 17.8673 250.902 18.092 250.902 18.3545C250.902 18.617 250.803 18.8418 250.604 19.0287C250.409 19.2156 250.174 19.3091 249.9 19.3091ZM254.147 26.6591L254.123 24.917H254.41L258.419 20.8364H260.161L255.889 25.1557H255.77L254.147 26.6591ZM252.835 30V17.7818H254.243V30H252.835ZM258.657 30L255.078 25.4659L256.08 24.4875L260.447 30H258.657ZM265.102 30.1909C264.219 30.1909 263.457 29.996 262.817 29.6062C262.18 29.2125 261.689 28.6636 261.343 27.9597C261.001 27.2517 260.83 26.4284 260.83 25.4898C260.83 24.5511 261.001 23.7239 261.343 23.008C261.689 22.2881 262.17 21.7273 262.787 21.3256C263.407 20.9199 264.131 20.717 264.959 20.717C265.436 20.717 265.907 20.7966 266.372 20.9557C266.838 21.1148 267.261 21.3733 267.643 21.7312C268.025 22.0852 268.329 22.5545 268.556 23.1392C268.783 23.7239 268.896 24.4437 268.896 25.2989V25.8955H261.832V24.6784H267.464C267.464 24.1614 267.361 23.7 267.154 23.2943C266.951 22.8886 266.661 22.5685 266.283 22.3338C265.909 22.0991 265.468 21.9818 264.959 21.9818C264.398 21.9818 263.912 22.121 263.503 22.3994C263.097 22.6739 262.785 23.0318 262.566 23.4733C262.347 23.9148 262.238 24.3881 262.238 24.8932V25.7045C262.238 26.3966 262.357 26.9832 262.596 27.4645C262.839 27.9418 263.175 28.3057 263.604 28.5562C264.034 28.8028 264.533 28.9261 265.102 28.9261C265.472 28.9261 265.806 28.8744 266.104 28.771C266.406 28.6636 266.667 28.5045 266.885 28.2937C267.104 28.079 267.273 27.8125 267.393 27.4943L268.753 27.8761C268.61 28.3375 268.369 28.7432 268.031 29.0932C267.693 29.4392 267.275 29.7097 266.778 29.9045C266.281 30.0955 265.722 30.1909 265.102 30.1909ZM276.369 22.1727L274.424 17.7818H275.212L276.572 21.0034L277.932 17.7818H278.72L276.775 22.1727H276.369ZM274.281 22.1727V17.7818H275.045V22.1727H274.281ZM278.099 22.1727V17.7818H278.863V22.1727H278.099ZM271.418 22.1727V18.1636H272.181V22.1727H271.418ZM270.081 18.45V17.7818H273.518V18.45H270.081Z" fill="white"/>
<path d="M190.486 21.6H189.007C188.919 21.1744 188.766 20.8006 188.547 20.4784C188.332 20.1562 188.07 19.8858 187.76 19.667C187.454 19.4443 187.113 19.2773 186.74 19.1659C186.366 19.0545 185.976 18.9989 185.57 18.9989C184.83 18.9989 184.16 19.1858 183.56 19.5597C182.963 19.9335 182.488 20.4844 182.134 21.2122C181.784 21.9401 181.609 22.833 181.609 23.8909C181.609 24.9489 181.784 25.8418 182.134 26.5696C182.488 27.2974 182.963 27.8483 183.56 28.2222C184.16 28.596 184.83 28.783 185.57 28.783C185.976 28.783 186.366 28.7273 186.74 28.6159C187.113 28.5045 187.454 28.3395 187.76 28.1207C188.07 27.898 188.332 27.6256 188.547 27.3034C188.766 26.9773 188.919 26.6034 189.007 26.1818H190.486C190.375 26.8062 190.172 27.3651 189.878 27.8582C189.583 28.3514 189.217 28.771 188.78 29.117C188.342 29.4591 187.851 29.7196 187.306 29.8986C186.765 30.0776 186.187 30.167 185.57 30.167C184.528 30.167 183.602 29.9125 182.79 29.4034C181.979 28.8943 181.34 28.1705 180.875 27.2318C180.41 26.2932 180.177 25.1795 180.177 23.8909C180.177 22.6023 180.41 21.4886 180.875 20.55C181.34 19.6114 181.979 18.8875 182.79 18.3784C183.602 17.8693 184.528 17.6148 185.57 17.6148C186.187 17.6148 186.765 17.7043 187.306 17.8832C187.851 18.0622 188.342 18.3247 188.78 18.6707C189.217 19.0128 189.583 19.4304 189.878 19.9236C190.172 20.4128 190.375 20.9716 190.486 21.6ZM193.758 24.4875V30H192.35V17.7818H193.758V22.2682H193.877C194.092 21.7949 194.414 21.419 194.844 21.1406C195.277 20.8582 195.854 20.717 196.574 20.717C197.198 20.717 197.745 20.8423 198.215 21.0929C198.684 21.3395 199.048 21.7193 199.306 22.2324C199.569 22.7415 199.7 23.3898 199.7 24.1773V30H198.292V24.2727C198.292 23.5449 198.103 22.9821 197.725 22.5844C197.352 22.1827 196.832 21.9818 196.168 21.9818C195.707 21.9818 195.293 22.0793 194.927 22.2741C194.565 22.469 194.279 22.7534 194.068 23.1273C193.861 23.5011 193.758 23.9545 193.758 24.4875ZM201.94 30V20.8364H203.348V30H201.94ZM202.656 19.3091C202.381 19.3091 202.145 19.2156 201.946 19.0287C201.751 18.8418 201.654 18.617 201.654 18.3545C201.654 18.092 201.751 17.8673 201.946 17.6804C202.145 17.4935 202.381 17.4 202.656 17.4C202.93 17.4 203.165 17.4935 203.36 17.6804C203.559 17.8673 203.658 18.092 203.658 18.3545C203.658 18.617 203.559 18.8418 203.36 19.0287C203.165 19.2156 202.93 19.3091 202.656 19.3091ZM212.082 22.8886L210.817 23.2466C210.737 23.0358 210.62 22.831 210.465 22.6321C210.314 22.4293 210.107 22.2622 209.844 22.131C209.582 21.9997 209.246 21.9341 208.836 21.9341C208.275 21.9341 207.808 22.0634 207.434 22.3219C207.064 22.5764 206.879 22.9006 206.879 23.2943C206.879 23.6443 207.007 23.9207 207.261 24.1236C207.516 24.3264 207.913 24.4955 208.454 24.6307L209.814 24.9648C210.634 25.1636 211.244 25.4679 211.646 25.8776C212.048 26.2832 212.249 26.8062 212.249 27.4466C212.249 27.9716 212.097 28.4409 211.795 28.8545C211.497 29.2682 211.079 29.5943 210.542 29.833C210.005 30.0716 209.381 30.1909 208.669 30.1909C207.734 30.1909 206.961 29.9881 206.348 29.5824C205.736 29.1767 205.348 28.5841 205.185 27.8045L206.521 27.4705C206.649 27.9636 206.889 28.3335 207.243 28.5801C207.601 28.8267 208.068 28.95 208.645 28.95C209.301 28.95 209.822 28.8108 210.208 28.5324C210.598 28.25 210.793 27.9119 210.793 27.5182C210.793 27.2 210.682 26.9335 210.459 26.7187C210.236 26.5 209.894 26.3369 209.433 26.2295L207.905 25.8716C207.066 25.6727 206.45 25.3645 206.056 24.9469C205.666 24.5253 205.471 23.9983 205.471 23.3659C205.471 22.8489 205.616 22.3915 205.907 21.9937C206.201 21.596 206.601 21.2838 207.106 21.0571C207.615 20.8304 208.192 20.717 208.836 20.717C209.743 20.717 210.455 20.9159 210.972 21.3136C211.493 21.7114 211.863 22.2364 212.082 22.8886ZM217.874 30.1909C216.991 30.1909 216.229 29.996 215.589 29.6062C214.953 29.2125 214.461 28.6636 214.115 27.9597C213.773 27.2517 213.602 26.4284 213.602 25.4898C213.602 24.5511 213.773 23.7239 214.115 23.008C214.461 22.2881 214.943 21.7273 215.559 21.3256C216.18 20.9199 216.904 20.717 217.731 20.717C218.208 20.717 218.679 20.7966 219.145 20.9557C219.61 21.1148 220.034 21.3733 220.415 21.7312C220.797 22.0852 221.102 22.5545 221.328 23.1392C221.555 23.7239 221.668 24.4437 221.668 25.2989V25.8955H214.605V24.6784H220.236C220.236 24.1614 220.133 23.7 219.926 23.2943C219.723 22.8886 219.433 22.5685 219.055 22.3338C218.681 22.0991 218.24 21.9818 217.731 21.9818C217.17 21.9818 216.685 22.121 216.275 22.3994C215.869 22.6739 215.557 23.0318 215.338 23.4733C215.12 23.9148 215.01 24.3881 215.01 24.8932V25.7045C215.01 26.3966 215.13 26.9832 215.368 27.4645C215.611 27.9418 215.947 28.3057 216.377 28.5562C216.806 28.8028 217.305 28.9261 217.874 28.9261C218.244 28.9261 218.578 28.8744 218.876 28.771C219.179 28.6636 219.439 28.5045 219.658 28.2937C219.877 28.079 220.046 27.8125 220.165 27.4943L221.525 27.8761C221.382 28.3375 221.141 28.7432 220.803 29.0932C220.465 29.4392 220.048 29.7097 219.55 29.9045C219.053 30.0955 218.494 30.1909 217.874 30.1909ZM224.882 17.7818V30H223.474V17.7818H224.882Z" fill="#4FF8D2"/>
</svg>
