<svg width="68" height="30" viewBox="0 0 416 183" fill="none" xmlns="http://www.w3.org/2000/svg">
<path d="M129.507 129.391H113.044L127.253 100.627H127.449L129.507 129.391ZM130.291 142.35L131.271 153.738H149.302L143.324 87.2754H116.474L82.4707 153.738H100.893L106.577 142.35H130.291Z" fill="#F38B00"/>
<path d="M174.584 124.679H177.23L190.165 107.204H206.824L188.989 129.588L199.964 153.738H182.228L175.074 134.889H172.428L168.411 153.738H153.222L167.235 87.2754H182.522L174.584 124.679Z" fill="#F38B00"/>
<path d="M226.324 134.496C231.322 134.496 234.556 134.888 233.772 138.717C232.694 143.626 230.636 144.411 224.267 144.411C221.915 144.411 217.603 144.411 218.681 139.404C219.563 135.183 222.601 134.496 226.324 134.496ZM230.538 153.737H245.727L251.901 124.678C255.33 108.676 249.157 106.713 233.576 106.713C222.699 106.713 212.214 106.615 209.078 121.046H224.267C225.149 116.825 227.696 116.039 231.518 116.039C238.182 116.039 237.888 118.788 236.908 123.108L235.34 130.471H234.654C234.066 125.169 227.402 125.267 223.091 125.267C212.116 125.267 205.55 128.703 203.198 139.895C200.65 151.774 206.334 154.326 216.917 154.326C222.209 154.326 229.362 153.246 231.812 146.865H232.302L230.538 153.737Z" fill="#F38B00"/>
<path d="M276.496 107.204L275.124 113.781H275.712C278.75 108.284 284.728 106.713 289.921 106.713C296.487 106.713 302.954 107.891 302.072 115.843H302.758C305.012 109.167 311.774 106.713 317.653 106.713C328.335 106.713 332.94 111.131 330.588 121.93L323.827 153.737H308.638L314.322 126.838C315.105 121.93 315.889 118.395 310.01 118.395C304.13 118.395 302.072 122.322 301.093 127.329L295.507 153.737H280.318L286.296 125.562C286.982 121.341 287.373 118.395 282.082 118.395C275.81 118.395 273.948 121.733 272.773 127.329L267.187 153.737H251.998L261.895 107.204H276.496Z" fill="#F38B00"/>
<path d="M354.499 134.496C359.398 134.496 362.73 134.888 361.946 138.717C360.966 143.626 358.81 144.411 352.441 144.411C350.187 144.411 345.777 144.411 346.855 139.404C347.737 135.183 350.775 134.496 354.499 134.496ZM358.712 153.737H373.901L380.075 124.678C383.505 108.676 377.331 106.713 361.75 106.713C350.873 106.713 340.29 106.615 337.252 121.046H352.441C353.323 116.825 355.871 116.039 359.692 116.039C366.356 116.039 366.062 118.788 365.082 123.108L363.71 130.471H363.024C362.436 125.169 355.773 125.267 351.461 125.267C340.486 125.267 333.92 128.703 331.568 139.895C329.02 151.774 334.704 154.326 345.287 154.326C350.579 154.326 357.732 153.246 360.28 146.865H360.77L358.712 153.737Z" fill="#F38B00"/>
<path d="M395.852 153.739H380.663L390.462 107.205H405.651L395.852 153.739Z" fill="#F38B00"/>
<path d="M90.2126 169.838C56.503 159.53 31.9068 128.311 31.9068 91.3985C31.9068 53.995 56.993 22.4817 91.2905 12.5664C94.8183 11.5846 93.8383 9.22852 89.6246 9.22852C44.0579 9.22852 7.0166 46.043 7.0166 91.3985C7.0166 136.754 43.9599 173.47 89.6246 173.47C93.8383 173.47 94.0343 171.016 90.2126 169.838Z" fill="#009BDE"/>
<path d="M47.5851 110.541C47.3891 108.381 47.1931 106.123 47.1931 103.865C47.1931 67.8362 76.297 38.6791 112.26 38.6791C146.264 38.6791 156.455 53.8957 157.729 52.914C159.101 51.8341 145.382 21.6953 105.499 21.6953C69.5355 21.6953 40.4316 50.8524 40.4316 86.8815C40.4316 95.2262 41.9995 103.178 44.8413 110.443C46.0172 113.584 47.8791 113.584 47.5851 110.541Z" fill="#009BDE"/>
<path d="M74.8277 63.6164C91.6825 56.2535 112.947 56.0571 133.819 63.3219C147.832 68.2305 155.966 75.2007 156.652 74.9062C157.73 74.4153 148.518 59.6895 131.762 53.4065C111.477 45.7491 89.7227 49.7741 73.8478 62.242C72.0839 63.6164 72.7699 64.4999 74.8277 63.6164Z" fill="#009BDE"/>
<path d="M409.081 94.3437C409.081 99.056 405.259 102.885 400.556 102.885C395.852 102.885 392.03 99.056 392.03 94.3437C392.03 89.6314 395.852 85.8027 400.556 85.8027C405.259 85.8027 409.081 89.6314 409.081 94.3437Z" fill="#F38B00"/>
</svg>
