<svg width="40" height="40" viewBox="0 0 305 305" fill="none" xmlns="http://www.w3.org/2000/svg">
<path d="M33.5402 135.426C32.967 139.446 32.5941 143.492 32.4227 147.548H215.158C214.519 146.301 213.662 145.176 212.798 144.075C181.558 103.686 164.753 107.188 140.714 106.162C132.7 105.832 127.264 105.699 95.3623 105.699C78.2879 105.699 59.7248 105.743 41.6487 105.791C39.3089 112.111 37.0521 118.238 35.9531 123.222H129.593V135.426H33.5402ZM216.598 159.765H32.5167C32.7094 163.021 33.0129 166.234 33.451 169.404H203.403C210.979 169.404 215.22 165.102 216.598 159.765ZM42.9989 202.698C42.9989 202.698 71.1738 271.929 152.585 273.159C201.243 273.159 243.052 244.239 262.044 202.698H42.9989Z" fill="white"/>
<path d="M152.583 32.4082C107.592 32.4082 68.4414 57.1325 47.7668 93.6803C63.9234 93.6468 95.3898 93.6273 95.3898 93.6273H95.397V93.6153C132.59 93.6153 133.972 93.7815 141.238 94.0852L145.736 94.2514C161.407 94.774 180.668 96.4575 195.823 107.932C204.05 114.156 215.927 127.892 223.007 137.678C229.553 146.73 231.436 157.135 226.986 167.104C222.889 176.267 214.075 181.732 203.402 181.732H36.3439C36.3439 181.732 37.3383 185.95 38.8296 190.607H266.869C270.918 178.425 272.987 165.673 273 152.836C273.003 86.3319 219.089 32.4082 152.583 32.4082Z" fill="white"/>
</svg>
