<svg width="30" viewBox="0 0 214 219" fill="none" xmlns="http://www.w3.org/2000/svg">
<path d="M0 217.999V103.041C0 102.241 0.901488 101.721 1.61843 102.074C9.84252 106.127 37.5226 114.253 59.6047 106.447C83.5 98 96.8758 82.7057 106.938 42.2556C117 1.80555 155.148 -1.7124 171.802 1.80492C188.456 5.32224 220.012 27.3055 212.999 65.996C207.389 96.9484 187 110.842 168.296 110.842H127.975C115.353 110.842 106.938 120.5 106.938 131.946V218.023C106.938 218.575 106.49 218.999 105.938 218.999H1C0.447715 218.999 0 218.552 0 217.999Z" fill="white"/>
</svg>
