<svg width="740" height="170" viewBox="0 0 740 170" fill="none" xmlns="http://www.w3.org/2000/svg">
<path d="M171.345 0V30.78L156.805 34.53L147.695 23.56L142.885 33.02C132.965 30.32 119.305 28.58 100.515 28.58C81.7251 28.58 68.0651 30.33 58.1451 33.02L53.3351 23.56L44.2251 34.53L29.6851 30.78V0C29.6851 0 5.19515 20.67 0.525146 48.61L32.665 59.73C33.715 79.16 42.4551 131.61 44.9551 136.37C47.6151 141.44 61.735 155.93 72.785 161.5C72.785 161.5 76.7851 157.27 79.2251 153.54C82.3251 157.19 98.3351 169.99 100.525 169.99C102.715 169.99 118.725 157.19 121.825 153.54C124.265 157.27 128.265 161.5 128.265 161.5C139.315 155.93 153.435 141.44 156.095 136.37C158.595 131.61 167.335 79.16 168.385 59.73L200.525 48.61C195.835 20.67 171.345 0 171.345 0ZM154.305 93.36L132.555 95.3L134.465 121.97C134.465 121.97 121.235 132.92 100.505 132.92C79.7751 132.92 66.545 121.97 66.545 121.97L68.4551 95.3L46.7051 93.36L42.9851 63.32L79.035 75.8L76.2351 113.19C82.9351 114.89 89.9851 116.58 100.515 116.58C111.045 116.58 118.085 114.89 124.785 113.19L121.985 75.8L158.035 63.32L154.315 93.36H154.305Z" fill="#183134"/>
<path d="M239.805 49.42L270.875 53.24V142.83H298.835V53.24L329.735 49.42V27.17H239.805V49.42Z" fill="#183134"/>
<path d="M406.085 96.53C406.085 109.57 399.725 118.76 386.495 118.76C373.265 118.76 366.565 109.74 366.565 96.7V27.17H338.605V96.7C338.605 125.61 353.505 145 386.165 145C418.825 145 434.055 124.44 434.055 96.53V27.17H406.095V96.53H406.085Z" fill="#183134"/>
<path d="M524.135 61.6C524.135 39.71 511.905 27.17 487.635 27.17H447.785V142.82H475.585V95.35H483.125L505.895 142.82H535.865L509.405 90.01C518.785 84.33 524.145 74.47 524.145 61.6H524.135ZM485.285 72.63H475.575V51.24H485.285C491.475 51.24 495.325 55.42 495.325 61.77C495.325 68.12 491.645 72.63 485.285 72.63Z" fill="#183134"/>
<path d="M588.265 74.47L573.695 68.79C565.825 65.78 563.145 62.44 563.145 57.59C563.145 52.74 566.325 48.9 572.695 48.9C579.065 48.9 582.905 53.91 582.745 61.1H608.525C609.705 40.54 599.825 25 572.525 25C549.925 25 535.185 39.04 535.185 59.26C535.185 73.3 541.375 84.66 553.105 90.68C559.465 93.86 565.325 96.03 571.185 98.37C578.715 101.21 583.405 104.39 583.405 110.9C583.405 117.41 578.715 121.1 572.355 121.1C563.145 121.1 560.295 113.91 560.635 106.56H534.175C533.175 123.44 539.195 145 572.355 145C595.625 145 612.205 131.3 612.205 107.9C612.205 90.69 603.325 80.66 588.255 74.47H588.265Z" fill="#183134"/>
<path d="M678.355 25C642.695 25 618.245 51.57 618.245 85.17C618.245 118.77 641.355 145 679.195 145C717.035 145 739.815 118.43 739.815 84.67C739.815 50.91 716.205 25 678.355 25ZM679.025 118.93C659.765 118.93 647.545 104.06 647.545 85C647.545 65.94 658.435 51.07 678.855 51.07C699.275 51.07 710.505 66.11 710.505 85C710.505 103.89 699.455 118.93 679.025 118.93Z" fill="#183134"/>
</svg>
