<svg width="740" height="170" viewBox="0 0 740 170" fill="none" xmlns="http://www.w3.org/2000/svg">
<path d="M100 170C97.81 170 81.8 157.2 78.7 153.55C76.26 157.28 72.26 161.51 72.26 161.51C61.21 155.94 47.09 141.45 44.43 136.38C41.81 131.38 32.3 73.8 32.04 57.08C31.7 47.67 37.89 28.59 100 28.59C162.11 28.59 168.29 47.67 167.96 57.08C167.71 73.8 158.2 131.38 155.57 136.38C152.91 141.45 138.79 155.94 127.74 161.51C127.74 161.51 123.74 157.28 121.3 153.55C118.2 157.2 102.19 170 100 170Z" fill="#1EBCA1"/>
<path d="M100 132.92C79.27 132.92 66.04 121.97 66.04 121.97L67.95 95.3001L46.2 93.3601L42.29 61.8101H157.72L153.81 93.3601L132.06 95.3001L133.97 121.97C133.97 121.97 120.74 132.92 100.01 132.92H100Z" fill="#183134"/>
<path d="M121.48 75.79L200 48.61C195.33 20.67 170.84 0 170.84 0V30.78L156.3 34.53L147.19 23.56L139.39 38.9L100.01 49.06L60.63 38.9L52.83 23.56L43.72 34.53L29.18 30.78V0C29.18 0 4.67 20.67 0 48.61L78.52 75.79L75.72 113.18C82.42 114.88 89.47 116.57 100 116.57C110.53 116.57 117.57 114.88 124.27 113.18L121.47 75.79H121.48Z" fill="#4FF8D2"/>
<path d="M298.33 53.24V142.82H270.37V53.24L239.31 49.42V27.17H329.23V49.42L298.33 53.24Z" fill="#4FF7D1"/>
<path d="M338.1 96.7V27.17H366.06V96.7C366.06 109.74 372.26 118.76 385.99 118.76C399.72 118.76 405.58 109.57 405.58 96.53V27.17H433.54V96.53C433.54 124.44 417.47 145 385.65 145C353.83 145 338.09 125.61 338.09 96.7H338.1Z" fill="#4FF7D1"/>
<path d="M508.89 90.01L535.35 142.82H505.38L482.61 95.35H475.07V142.82H447.27V27.17H487.12C511.4 27.17 523.62 39.71 523.62 61.6C523.62 74.47 518.26 84.33 508.88 90.01H508.89ZM475.07 51.24V72.63H484.78C491.14 72.63 494.82 68.28 494.82 61.77C494.82 55.26 490.97 51.24 484.78 51.24H475.07Z" fill="#4FF7D1"/>
<path d="M573.19 68.79L587.76 74.47C602.83 80.65 611.71 90.68 611.71 107.9C611.71 131.3 595.13 145 571.86 145C538.7 145 532.68 123.44 533.68 106.56H560.14C559.81 113.91 562.65 121.1 571.86 121.1C578.22 121.1 582.91 117.59 582.91 110.9C582.91 104.21 578.22 101.21 570.69 98.37C564.83 96.03 558.97 93.86 552.61 90.68C540.89 84.66 534.69 73.3 534.69 59.26C534.69 39.04 549.42 25 572.03 25C599.33 25 609.21 40.54 608.03 61.1H582.25C582.42 53.91 578.73 48.9 572.2 48.9C565.67 48.9 562.65 52.74 562.65 57.59C562.65 62.44 565.33 65.78 573.2 68.79H573.19Z" fill="#4FF7D1"/>
<path d="M677.85 25C715.7 25 739.31 50.91 739.31 84.67C739.31 118.43 715.86 145 678.69 145C641.52 145 617.74 119.1 617.74 85.17C617.74 51.24 642.19 25 677.85 25ZM678.52 118.93C698.95 118.93 710 103.89 710 85C710 66.11 698.28 51.07 678.35 51.07C658.42 51.07 647.04 66.11 647.04 85C647.04 103.89 659.26 118.93 678.52 118.93Z" fill="#4FF7D1"/>
</svg>
